<?xml version="1.0" standalone="no"?>
<!DOCTYPE svg PUBLIC "-//W3C//DTD SVG 1.1//EN" "http://www.w3.org/Graphics/SVG/1.1/DTD/svg11.dtd" >
<svg xmlns="http://www.w3.org/2000/svg" xmlns:xlink="http://www.w3.org/1999/xlink" version="1.1">
<metadata>
Created by FontForge 20170731 at Thu Dec  9 18:55:49 2021
 By Aleksey,,,
 (c) Seemly Fonts. All Rights Reserved.
</metadata>
<defs>
<font id="Affection" horiz-adv-x="1007" >
  <font-face 
    font-family="Affection"
    font-weight="400"
    font-stretch="normal"
    units-per-em="2048"
    panose-1="2 0 5 3 0 0 0 0 0 0"
    ascent="1638"
    descent="-410"
    x-height="978"
    cap-height="1390"
    bbox="-41.5 -471.5 1827 1601.5"
    underline-thickness="0"
    underline-position="0"
    unicode-range="U+0020-02DD"
  />
<missing-glyph horiz-adv-x="628" 
 />
    <glyph glyph-name=".notdef" horiz-adv-x="628" 
 />
    <glyph glyph-name=".notdef" horiz-adv-x="628" 
 />
    <glyph glyph-name=".null" horiz-adv-x="0" 
 />
    <glyph glyph-name="nonmarkingreturn" horiz-adv-x="682" 
 />
    <glyph glyph-name="space" unicode=" " horiz-adv-x="628" 
 />
    <glyph glyph-name="ltr33" unicode="!" horiz-adv-x="354" 
d="M205 129v-2q0 -50 27 -83.5t65.5 -41.5t77 0t65.5 41.5t27 83.5v2q0 36 -14.5 64t-37.5 42.5t-51 21.5t-56 0t-51 -21.5t-37.5 -42.5t-14.5 -64zM205 1262v-803q0 -36 14.5 -64t37.5 -42.5t51 -21.5t56 0t51 21.5t37.5 42.5t14.5 64v803q0 36 -14.5 64t-37.5 42.5
t-51 21.5t-56 0t-51 -21.5t-37.5 -42.5t-14.5 -64z" />
    <glyph glyph-name="ltr34" unicode="&#x22;" horiz-adv-x="802" 
d="M512 1262v-283q0 -36 14.5 -64t37.5 -42.5t51 -21.5t56 0t51 21.5t37.5 42.5t14.5 64v283q0 36 -14.5 64t-37.5 42.5t-51 21.5t-56 0t-51 -21.5t-37.5 -42.5t-14.5 -64zM164 1262v-283q0 -36 14.5 -64t37.5 -42.5t51 -21.5t56 0t51 21.5t37.5 42.5t14.5 64v283
q0 42 -19.5 72.5t-48.5 44t-63 13.5t-63 -13.5t-48.5 -44t-19.5 -72.5z" />
    <glyph glyph-name="ltr35" unicode="#" horiz-adv-x="1097" 
d="M1014 850h47q59 0 94 38t37.5 85t-27.5 89t-85 49l30 118q8 35 1.5 66t-25.5 51t-44 33t-54.5 13.5t-55 -8t-46.5 -32t-30 -58.5l-46 -182h-174l30 117q8 35 1.5 66t-25.5 51t-44 33t-54.5 13.5t-55 -8t-46.5 -32t-30 -58.5l-47 -182h-193q-50 0 -83.5 -27t-41.5 -65.5
t0 -77t41.5 -65.5t83.5 -27h127l-77 -303h-50q-48 0 -81.5 -25.5t-42.5 -62.5t-3 -74.5t36 -66t75 -33.5l-31 -121q-8 -35 -1.5 -66t25.5 -51t44 -33.5t54.5 -13.5t55 8t46.5 31.5t30 58.5l47 187h174l-31 -121q-8 -35 -1.5 -66t25.5 -51t44 -33.5t54.5 -13.5t55 8
t46.5 31.5t30 58.5l48 187h190q36 0 64 14.5t42.5 37.5t21.5 51t0 56t-21.5 51t-42.5 37.5t-64 14.5h-124zM743 850l-77 -303h-173l77 303h173z" />
    <glyph glyph-name="ltr36" unicode="$" horiz-adv-x="1013" 
d="M707 1376v94q0 36 -14.5 64t-37.5 42.5t-51 21.5t-56.5 0t-51.5 -21.5t-37.5 -42.5t-14.5 -64v-93q-147 -38 -238 -149.5t-91 -248.5q0 -72 27 -132t76.5 -104.5t102.5 -76t123 -60.5v-318q-100 44 -100 126q0 42 -19.5 72.5t-48.5 44t-63 13.5t-63 -13.5t-48.5 -44
t-19.5 -72.5q0 -135 100 -249t262 -151v-92q0 -36 14.5 -64t37.5 -42.5t51.5 -21.5t56.5 0t51 21.5t37.5 42.5t14.5 64v93q160 38 260 151.5t100 247.5q0 77 -29.5 140t-85 109.5t-112.5 78t-133 61.5v290q65 -43 65 -114q0 -36 14.5 -64t37.5 -42.5t51 -21.5t56 0t51 21.5
t37.5 42.5t14.5 64q0 135 -90.5 246.5t-236.5 150.5zM707 505q48 -22 73 -43.5t25 -47.5v-2q0 -79 -98 -123v216zM444 905q-67 35 -67 74q0 71 67 115v-189z" />
    <glyph glyph-name="ltr37" unicode="%" horiz-adv-x="1179" 
d="M788 356q0 34 3 63t11.5 59t25.5 47t42 16q88 -2 88 -181v-2q0 -44 -23.5 -70t-62.5 -26t-61 24.5t-23 69.5zM438 1130q38 0 61.5 -23t22.5 -67v-6q2 -73 -17 -124.5t-65 -51.5h-2q-48 0 -71 50.5t-23 125.5q0 45 27 70.5t67 25.5zM442 1393q-100 2 -180 -35t-130 -120.5
t-50 -203.5v-2q0 -91 18.5 -164t49.5 -121.5t74 -82t89.5 -49t98.5 -18.5l-301 -384q-22 -29 -28.5 -60t2.5 -57t27 -49t44 -35t53 -15t55.5 10.5t50.5 41.5l213 271q7 -86 38 -150t79 -101t106 -54t126 -15q152 3 248 93.5t96 266.5q0 112 -25.5 197t-71 135t-99.5 76.5
t-118 32.5l297 379q22 29 28.5 60t-3 57t-27 48.5t-44 34.5t-53.5 15t-55.5 -10.5t-50.5 -41.5l-215 -273q-3 82 -31.5 145t-76.5 100.5t-106.5 56.5t-127.5 21z" />
    <glyph glyph-name="ltr38" unicode="&#x26;" horiz-adv-x="1179" 
d="M438 668q125 -173 266 -329q-74 -79 -163 -79q-58 -1 -104 18t-73 50t-41 70t-11.5 81t20.5 80q26 53 106 109zM883 151q47 -46 135 -122q27 -23 58 -30.5t57 1t49 25.5t35.5 42.5t16.5 52.5t-8.5 56.5t-39.5 52.5q-76 65 -152 138q2 6 7 18.5t7.5 19t7 17t7.5 16.5
t7.5 14.5t8 13t8 9t9.5 6.5t10 2q50 2 83 30t39.5 67t-2.5 77t-43.5 64t-84.5 24q-52 -1 -111 -51.5t-131 -146.5q-128 138 -215 249q226 154 223 279q0 63 -20.5 116.5t-53.5 90.5t-76 63t-88 37.5t-89 10.5q-53 -2 -105 -20.5t-99 -54.5t-77.5 -99t-32.5 -144v-2
q-1 -56 74 -189q-154 -111 -203 -212v-2q-31 -68 -41 -144t0.5 -151t47.5 -143t94.5 -120.5t147 -83t198.5 -30.5q189 0 342 153zM503 1006q-18 41 -18 63q1 29 19.5 45t40.5 16q21 0 39 -15t18 -42v-4q0 -11 -6.5 -19.5t-26 -17.5t-28.5 -12.5t-38 -13.5z" />
    <glyph glyph-name="ltr39" unicode="'" horiz-adv-x="190" 
d="M123 1262v-281q0 -36 14.5 -64t37.5 -42.5t51 -21.5t56 0t51 21.5t37.5 42.5t14.5 64v281q0 42 -19.5 72.5t-48.5 44t-63 13.5t-63 -13.5t-48.5 -44t-19.5 -72.5z" />
    <glyph glyph-name="ltr40" unicode="(" horiz-adv-x="440" 
d="M242 1352q-81 -199 -120.5 -386t-39.5 -454q0 -505 162 -848q16 -33 41 -52t52.5 -22t56 3t50 24.5t37 42t15.5 55t-15 64.5q-137 278 -137 733q0 236 34.5 402t104.5 339q17 47 6.5 88t-44 63.5t-71 29.5t-75.5 -14.5t-57 -67.5z" />
    <glyph glyph-name="ltr41" unicode=")" horiz-adv-x="440" 
d="M92 1253q139 -343 139 -741q0 -208 -40.5 -403.5t-98.5 -337.5q-13 -34 -11 -65t18.5 -53.5t39.5 -39.5t51.5 -21t55 0.5t50.5 25.5t38 54q66 162 113 383.5t47 456.5q0 447 -160 840q-14 33 -38 54t-50.5 25.5t-55 0.5t-51.5 -21t-39.5 -39.5t-18.5 -53.5t11 -65z" />
    <glyph glyph-name="ltr42" unicode="*" horiz-adv-x="884" 
d="M510 1264l-31 59q-20 37 -51.5 55.5t-63 16t-62.5 -16.5t-49.5 -42.5t-23 -61.5t16.5 -74l47 -90h-80q-50 0 -83.5 -27t-41.5 -65.5t0 -77t41.5 -65.5t83.5 -27h81l-48 -92q-21 -41 -16.5 -74t23 -61.5t49.5 -42.5t62.5 -16.5t63 16t51.5 55.5l31 59l31 -59
q20 -37 51.5 -55.5t63 -16t62.5 16.5t49.5 42.5t23 61.5t-16.5 74l-48 92h81q42 0 72.5 19.5t44 48.5t13.5 63t-13.5 63t-44 48.5t-72.5 19.5h-80l47 90q21 41 16.5 74t-23 61.5t-49.5 42.5t-62.5 16.5t-63 -16t-51.5 -55.5z" />
    <glyph glyph-name="ltr43" unicode="+" horiz-adv-x="806" 
d="M602 565h127q36 0 64 14.5t42.5 37.5t21.5 51t0 56t-21.5 51t-42.5 37.5t-64 14.5h-127v154q0 36 -14.5 64t-37.5 42.5t-51 21.5t-56 0t-51 -21.5t-37.5 -42.5t-14.5 -64v-154h-127q-50 0 -83.5 -27t-41.5 -65.5t0 -77t41.5 -65.5t83.5 -27h127v-151q0 -36 14.5 -64
t37.5 -42.5t51 -21.5t56 0t51 21.5t37.5 42.5t14.5 64v151z" />
    <glyph glyph-name="ltr44" unicode="," horiz-adv-x="354" 
d="M207 170q-4 -113 -27 -156q-17 -32 -18 -63.5t12.5 -56t34.5 -44t49 -27t55 -5.5t53.5 19.5t43.5 49.5q49 91 59 271q2 50 -23.5 85t-63.5 44.5t-77 3.5t-67.5 -38.5t-30.5 -82.5z" />
    <glyph glyph-name="ltr45" unicode="-" horiz-adv-x="565" 
d="M213 391h274q36 0 64 14.5t42.5 37.5t21.5 51t0 56t-21.5 51t-42.5 37.5t-64 14.5h-274q-50 0 -83.5 -27t-41.5 -65.5t0 -77t41.5 -65.5t83.5 -27z" />
    <glyph glyph-name="ltr46" unicode="." horiz-adv-x="354" 
d="M205 129v-2q0 -50 27 -83.5t65.5 -41.5t77 0t65.5 41.5t27 83.5v2q0 36 -14.5 64t-37.5 42.5t-51 21.5t-56 0t-51 -21.5t-37.5 -42.5t-14.5 -64z" />
    <glyph glyph-name="ltr47" unicode="/" horiz-adv-x="483" 
d="M319 1292l-274 -1132q-8 -35 -1 -66t26.5 -50.5t44.5 -32.5t54 -13.5t54.5 8.5t46.5 33t29 59l274 1133q12 48 -6.5 87.5t-54 56.5t-74.5 18t-73 -26t-46 -75z" />
    <glyph glyph-name="ltr48" unicode="0" horiz-adv-x="890" 
d="M82 717q0 -135 25 -252t68 -201.5t99 -145t118.5 -90.5t125.5 -30q59 0 119 29.5t115 90t98 144t68.5 202t25.5 253.5t-25.5 252.5t-68.5 201t-98 144t-115 90t-119 29.5h-2q-79 0 -155.5 -48.5t-139 -136.5t-101 -227t-38.5 -305zM344 717q0 75 9 149.5t28.5 145.5
t54.5 115t82 44q44 0 78 -45t51.5 -116.5t26 -145.5t8.5 -147q0 -74 -8.5 -148.5t-26 -146.5t-51.5 -117t-78 -45h-2q-46 0 -81 44.5t-54 116t-28 146.5t-9 150z" />
    <glyph glyph-name="ltr49" unicode="1" horiz-adv-x="686" 
d="M313 887l49 57v-815q0 -36 14.5 -64t37.5 -42.5t51.5 -21.5t56.5 0t51 21.5t37.5 42.5t14.5 64v1171l-232 84l-280 -329q-23 -27 -30.5 -58t0.5 -57t25 -49t42.5 -35.5t52.5 -16.5t56.5 8.5t53.5 39.5z" />
    <glyph glyph-name="ltr50" unicode="2" horiz-adv-x="890" 
d="M344 1010q0 68 50 114.5t120 46.5q68 0 118 -47t50 -114q0 -54 -32.5 -109t-85.5 -105t-117 -104t-128.5 -114.5t-117.5 -125.5t-86 -149t-33 -174l131 -131h600q42 0 72.5 19.5t44 48.5t13.5 63t-13.5 63t-44 48.5t-72.5 19.5h-469q0 23 33 53.5t86 66t117 79t128 100
t117 121t86 150.5t33 180q0 175 -126 299.5t-304 124.5h-2q-178 0 -304 -125t-126 -299q0 -36 14.5 -64t37.5 -42.5t51 -21.5t56 0t51 21.5t37.5 42.5t14.5 64z" />
    <glyph glyph-name="ltr51" unicode="3" horiz-adv-x="884" 
d="M289 1171h237l-151 -270l114 -194q80 0 133.5 -64t53.5 -151v-3q0 -90 -53.5 -159.5t-133.5 -69.5h-2q-60 0 -104 31.5t-53 81.5q-8 49 -40.5 78t-72 30t-76 -13.5t-57.5 -52.5t-12 -87q23 -137 136.5 -233.5t280.5 -96.5q118 0 221 64t165.5 178.5t62.5 251.5
q0 76 -22 153t-53 133t-64 100.5t-56.5 67.5t-29.5 23l151 270l-114 195h-461q-42 0 -72.5 -19.5t-44 -48.5t-13.5 -63.5t13.5 -63.5t44 -48.5t72.5 -19.5z" />
    <glyph glyph-name="ltr52" unicode="4" horiz-adv-x="884" 
d="M369 1348l-320 -877l123 -176l389 -3v-163q0 -50 27 -83.5t65.5 -41.5t77 0t65.5 41.5t27 83.5v162q44 4 73.5 30.5t36.5 62.5t0 72.5t-36.5 63.5t-73.5 32v449q0 36 -14.5 64t-37.5 42.5t-51 21.5t-56 0t-51 -21.5t-37.5 -42.5t-14.5 -64v-447l-203 1l256 702
q11 34 8 65.5t-20.5 53t-40.5 37.5t-52 19.5t-55.5 -2t-49.5 -27t-35 -55.5z" />
    <glyph glyph-name="ltr53" unicode="5" horiz-adv-x="925" 
d="M776 1434h-403l-129 -105l-109 -528l256 -62q13 47 51.5 84t87.5 37q85 0 136 -92t51 -207v-2q0 -71 -21 -138t-65 -114t-101 -47h-2q-59 0 -104 41t-53 94q-7 50 -38.5 79.5t-71 32t-76.5 -11t-58.5 -51t-13.5 -86.5q10 -67 46 -131.5t90 -115.5t128 -82t153 -31
q85 0 166 41.5t143.5 113.5t101 179t38.5 229q0 123 -38 229.5t-101 178t-144 112.5t-166 41h-2q-35 0 -60 -5l11 54h297q42 0 72.5 19.5t44 48.5t13.5 63.5t-13.5 63.5t-44 48.5t-72.5 19.5z" />
    <glyph glyph-name="ltr54" unicode="6" horiz-adv-x="892" 
d="M463 1423q-64 -29 -131 -111.5t-123 -200t-92 -276.5t-35 -323v-1v-1v-2q1 -111 37.5 -208t96 -162t137.5 -102.5t161 -37.5t161.5 37.5t138.5 103.5t96 163t36 208q0 109 -36 204.5t-96 161t-138.5 103t-161.5 37.5h-2q-42 0 -86 -11q62 150 139 185q32 14 51.5 38.5
t23.5 50.5t-1 53.5t-22 49.5t-39 37t-52.5 16t-62.5 -12zM336 511q0 99 49 175t129 76t129 -76.5t49 -175.5v-2q0 -99 -49 -177.5t-129 -78.5h-2q-53 0 -94 38.5t-61.5 97t-20.5 123.5z" />
    <glyph glyph-name="ltr55" unicode="7" horiz-adv-x="776" 
d="M172 1171h348q-250 -469 -340 -1021q-8 -49 13 -87t57.5 -52t75.5 -12.5t71.5 31t40.5 79.5q48 294 147.5 554.5t268.5 577.5l-115 193h-567q-42 0 -72.5 -19.5t-44 -48.5t-13.5 -63.5t13.5 -63.5t44 -48.5t72.5 -19.5z" />
    <glyph glyph-name="ltr56" unicode="8" horiz-adv-x="890" 
d="M82 463q0 -128 59.5 -235t159 -167.5t213.5 -60.5t212.5 60.5t158 167.5t59.5 235q0 204 -134 343q91 105 91 243q0 162 -113 273.5t-272 111.5h-2q-162 0 -275.5 -112t-113.5 -273q0 -138 92 -243q-135 -140 -135 -343zM387 1049q0 53 37.5 87.5t91.5 34.5q51 0 87 -35
t36 -87v-2q0 -42 -29.5 -73.5t-73.5 -38.5q-4 0 -10 0.5t-10 0.5h-2q-3 0 -9.5 -0.5t-10.5 -0.5q-45 7 -76 38.5t-31 75.5zM537 672q64 -9 104.5 -71t40.5 -138v-2q0 -78 -48.5 -138.5t-119.5 -60.5h-2q-71 0 -119.5 61t-48.5 140q0 77 42 138.5t109 70.5h21h21z" />
    <glyph glyph-name="ltr57" unicode="9" horiz-adv-x="892" 
d="M946 931v1v2q-1 142 -62.5 258t-159.5 179t-210 63h-2q-83 0 -161 -37.5t-137.5 -103t-95.5 -160t-36 -201.5v-2q0 -141 61 -256.5t160.5 -178.5t212.5 -63h9q-17 -36 -124 -250q-20 -44 -13.5 -84t37 -64.5t66.5 -34.5t75 8t61 61q207 398 284 664q34 88 35 192v6v1z
M692 931q0 -96 -49 -170.5t-127 -74.5h-2q-79 0 -128.5 74.5t-49.5 171.5t49.5 172.5t128.5 75.5t128.5 -75.5t49.5 -173.5z" />
    <glyph glyph-name="ltr58" unicode=":" horiz-adv-x="190" 
d="M68 203v-2q0 -50 27 -83.5t65.5 -41.5t77 0t65.5 41.5t27 83.5v2q0 42 -19.5 72.5t-48.5 44t-63 13.5t-63 -13.5t-48.5 -44t-19.5 -72.5zM68 807v-2q0 -36 14.5 -64t37.5 -42.5t51 -21.5t56 0t51 21.5t37.5 42.5t14.5 64v2q0 42 -19.5 72.5t-48.5 44t-63 13.5t-63 -13.5
t-48.5 -44t-19.5 -72.5z" />
    <glyph glyph-name="ltr59" unicode=";" horiz-adv-x="190" 
d="M125 141q-7 -141 -31 -202q-14 -33 -13 -64.5t16.5 -54.5t38 -40.5t51 -23t55 -1.5t51.5 24t39 53q49 104 55 297q2 50 -24 85.5t-64 45t-77 3t-67 -39t-30 -82.5zM106 807v-2q0 -36 14.5 -64t37.5 -42.5t51 -21.5t56.5 0t51.5 21.5t37.5 42.5t14.5 64v2q0 36 -14.5 64
t-37.5 42.5t-51 21.5t-56.5 0t-51.5 -21.5t-37.5 -42.5t-14.5 -64z" />
    <glyph glyph-name="ltr60" unicode="&#x3c;" horiz-adv-x="976" 
d="M850 1100l-686 -283l-2 -242l686 -284q42 -18 75 -10.5t59 28t37.5 52t11 63.5t-21.5 62t-59 46l-393 164l391 162q33 14 54 38t26 51t0.5 55.5t-21 51.5t-39 39.5t-53.5 18t-65 -11.5z" />
    <glyph glyph-name="ltr61" unicode="=" horiz-adv-x="976" 
d="M213 336h686q36 0 64 14.5t42.5 37.5t21.5 51t0 56t-21.5 51t-42.5 37.5t-64 14.5h-686q-50 0 -83.5 -27t-41.5 -65.5t0 -77t41.5 -65.5t83.5 -27zM213 750h686q36 0 64 14.5t42.5 37.5t21.5 51t0 56t-21.5 51t-42.5 37.5t-64 14.5h-686q-50 0 -83.5 -27t-41.5 -65.5
t0 -77t41.5 -65.5t83.5 -27z" />
    <glyph glyph-name="ltr62" unicode="&#x3e;" horiz-adv-x="976" 
d="M164 858l391 -162l-393 -164q-38 -16 -59 -46t-21.5 -62t11 -63.5t37.5 -52t59 -28t75 10.5l686 284l-2 242l-686 283q-34 13 -65 11.5t-53.5 -18t-39 -39.5t-21 -51.5t0.5 -55.5t26 -51t54 -38z" />
    <glyph glyph-name="ltr63" unicode="?" horiz-adv-x="806" 
d="M344 131v-4q0 -50 27 -83.5t65.5 -41.5t77 0t65.5 41.5t27 83.5v4q0 36 -14.5 64t-37.5 42.5t-51 21.5t-56 0t-51 -21.5t-37.5 -42.5t-14.5 -64zM344 981q0 66 36 108t91 41q55 -2 91 -44t36 -107v-2q0 -47 -19 -88t-47.5 -69.5l-61.5 -61.5t-61 -64.5t-46.5 -79
t-18.5 -104.5q-1 -8 -1 -15.5t0.5 -14t0.5 -7.5q0 -36 14.5 -64t37.5 -42.5t51 -21.5t56 0t51 21.5t37.5 42.5t14.5 64v3q-1 2 -1 5.5t1 7.5v17q0 50 13.5 92.5t36 73.5t49.5 58.5t54.5 54t50 54t36.5 63.5t14 77q0 96 -32.5 175.5t-87 130.5t-123 79t-142.5 29
q-78 1 -148 -25.5t-125 -77t-87.5 -130.5t-32.5 -179q0 -36 14.5 -64t37.5 -42.5t51 -21.5t56 0t51 21.5t37.5 42.5t14.5 64z" />
    <glyph glyph-name="ltr64" unicode="@" horiz-adv-x="1974" 
d="M987 784q40 0 61.5 -40t20 -89.5t-9.5 -93.5q-17 -59 -35.5 -104.5t-46 -91.5t-66 -72t-84.5 -27h-2q-35 -1 -57.5 21t-29.5 57t-5.5 73.5t12.5 74.5q36 137 98.5 214.5t143.5 77.5zM987 1047q-75 0 -144.5 -25.5t-136 -80t-122.5 -151.5t-92 -229q-38 -148 -25 -254.5
t69 -174.5t132.5 -99t165.5 -29q106 3 201 65q56 -80 161.5 -106t225.5 18q-179 -98 -435 -98q-165 0 -304 87.5t-218.5 235t-79.5 320.5t79 321t218 236t305 88q155 0 288 -75t211.5 -205t78.5 -283v-2q0 -100 -57.5 -200.5t-127.5 -149.5l-2 -2q-27 -20 -65 -49
q-55 -41 -60 -38q-2 2 2 20q1 7 2 10q70 307 146 694q8 42 -6.5 77t-43.5 53t-63 24t-67.5 -7.5t-54.5 -42.5q-83 52 -181 52zM1643 147q80 95 132 217t52 244q0 166 -66.5 318.5t-179 264t-268.5 177.5t-326 66q-174 0 -334 -72t-276 -193.5t-185 -289.5t-69 -353
q0 -148 44 -286.5t124.5 -249.5t187.5 -194.5t238 -129t270 -45.5q148 0 278 27t225 74t163 98.5t119 111.5q32 38 32.5 82t-22.5 75.5t-61.5 49t-77.5 8.5z" />
    <glyph glyph-name="ltr65" unicode="A" horiz-adv-x="1019" 
d="M931 283l87 -203q14 -33 39 -53.5t51.5 -25t55.5 0.5t51.5 22t38.5 39.5t17.5 54t-11.5 64.5l-484 1131h-241l-484 -1131q-13 -33 -11.5 -64.5t17.5 -54t38.5 -39.5t51.5 -22t55.5 -0.5t51.5 25t39 53.5l87 203h551zM819 545h-327l163 383z" />
    <glyph glyph-name="ltr66" unicode="B" horiz-adv-x="1019" 
d="M1102 708q119 117 119 271q0 165 -139 289.5t-349 124.5l-395 -2l-131 -131l-2 -1129l131 -131h465q179 0 303.5 122t124.5 292q0 173 -127 294zM468 826l-1 304h266q86 0 155.5 -41t69.5 -110v-2q0 -68 -70 -109t-155 -41zM468 565h265h68q67 0 116.5 -44t49.5 -107v-2
q0 -62 -49.5 -106t-116.5 -44l-332 -2z" />
    <glyph glyph-name="ltr67" unicode="C" horiz-adv-x="1024" 
d="M987 424q-37 -66 -121 -114t-176 -48q-98 0 -178.5 61.5t-124 160.5t-43.5 212t43.5 212t124 160.5t178.5 61.5q91 0 174.5 -46.5t116.5 -112.5q16 -32 42 -50.5t53 -21t55 4t50 25t36 42t13.5 55.5t-16.5 64q-63 123 -211 213t-313 90q-121 0 -232.5 -53.5t-194 -145.5
t-132 -222t-49.5 -276t49.5 -276t132 -221.5t194 -145t232.5 -53.5q164 0 312 88.5t215 208.5q18 31 19 63t-12 56t-34 43.5t-49 27t-55.5 6t-54 -19t-44.5 -49.5z" />
    <glyph glyph-name="ltr68" unicode="D" horiz-adv-x="1099" 
d="M336 0h401h13q112 11 212.5 70.5t171.5 152t108 216.5t26 257q14 177 -53 333t-191 253t-274 111h-13h-401l-131 -131v-1131zM467 262v868h264q130 -12 208.5 -138.5t66.5 -284.5v-21q12 -158 -66.5 -285t-208.5 -139h-264z" />
    <glyph glyph-name="ltr69" unicode="E" horiz-adv-x="1021" 
d="M1059 1393h-723l-131 -131v-1131l131 -131h723q42 0 72.5 19.5t44 48.5t13.5 63t-13.5 63t-44 48.5t-72.5 19.5h-592v303h584q36 0 64 14.5t42.5 37.5t21.5 51t0 56t-21.5 51t-42.5 37.5t-64 14.5h-584v303h592q42 0 72.5 19.5t44 48.5t13.5 63.5t-13.5 63.5t-44 48.5
t-72.5 19.5z" />
    <glyph glyph-name="ltr70" unicode="F" horiz-adv-x="811" 
d="M930 1393h-594l-131 -131v-1131q0 -50 27 -83.5t65.5 -41.5t77 0t65.5 41.5t27 83.5v434h455q36 0 64 14.5t42.5 37.5t21.5 51t0 56t-21.5 51t-42.5 37.5t-64 14.5h-455v303h463q42 0 72.5 19.5t44 48.5t13.5 63.5t-13.5 63.5t-44 48.5t-72.5 19.5z" />
    <glyph glyph-name="ltr71" unicode="G" horiz-adv-x="1183" 
d="M741 565h349q0 -37 -27.5 -88t-72 -99.5t-112.5 -82t-139 -33.5q-100 0 -182.5 61t-127 160.5t-44.5 212.5t45 212.5t127 160.5t182 61h2q89 1 168 -45t111 -112q37 -75 111 -77t118 57t8 134q-61 126 -207 216.5t-311 89.5q-163 0 -304 -91t-226.5 -252t-85.5 -354
q0 -145 50 -275t134 -221.5t197 -145.5t235 -54q120 0 232 54t196 145.5t134.5 221.5t50.5 275l-131 131h-480q-36 0 -64 -14.5t-42.5 -37.5t-21.5 -51t0 -56t21.5 -51t42.5 -37.5t64 -14.5z" />
    <glyph glyph-name="ltr72" unicode="H" horiz-adv-x="1142" 
d="M205 1262v-1131q0 -50 27 -83.5t65.5 -41.5t77 0t65.5 41.5t27 83.5v434h500v-434q0 -50 27 -83.5t65.5 -41.5t77 0t65.5 41.5t27 83.5v1131q0 42 -19.5 72.5t-48.5 44t-63 13.5t-63 -13.5t-48.5 -44t-19.5 -72.5v-435h-500v435q0 36 -14.5 64t-37.5 42.5t-51 21.5t-56 0
t-51 -21.5t-37.5 -42.5t-14.5 -64z" />
    <glyph glyph-name="ltr73" unicode="I" horiz-adv-x="198" 
d="M147 1262v-1131q0 -36 14.5 -64t37.5 -42.5t51 -21.5t56.5 0t51.5 21.5t37.5 42.5t14.5 64v1131q0 36 -14.5 64t-37.5 42.5t-51 21.5t-56.5 0t-51.5 -21.5t-37.5 -42.5t-14.5 -64z" />
    <glyph glyph-name="ltr74" unicode="J" horiz-adv-x="827" 
d="M596 1262v-850q-2 -60 -44 -105t-101 -45h-2q-61 0 -102.5 45t-43.5 107q0 36 -15 64t-38.5 42t-51.5 20.5t-55.5 -1t-50.5 -22.5t-37 -43t-14 -64q2 -169 121 -289.5t289 -120.5q107 0 201 56.5t149.5 151t56.5 202.5v2v850q0 36 -14.5 64t-37.5 42.5t-51 21.5t-56 0
t-51 -21.5t-37.5 -42.5t-14.5 -64z" />
    <glyph glyph-name="ltr75" unicode="K" horiz-adv-x="980" 
d="M205 1262v-1131q0 -50 27 -83.5t65.5 -41.5t77 0t65.5 41.5t27 83.5v428l498 -518q20 -20 42.5 -31t44 -11.5t43 5t38.5 19t31 30t21 38t7 43t-9.5 44.5t-29.5 43l-455 475l455 475q34 36 38.5 79t-17.5 75.5t-55.5 53.5t-76.5 15t-77 -42l-498 -519v429q0 36 -14.5 64
t-37.5 42.5t-51 21.5t-56 0t-51 -21.5t-37.5 -42.5t-14.5 -64z" />
    <glyph glyph-name="ltr76" unicode="L" horiz-adv-x="772" 
d="M205 1262v-1131l131 -131h555q42 0 72.5 19.5t44 48.5t13.5 63t-13.5 63t-44 48.5t-72.5 19.5h-424v1000q0 36 -14.5 64t-37.5 42.5t-51 21.5t-56 0t-51 -21.5t-37.5 -42.5t-14.5 -64z" />
    <glyph glyph-name="ltr77" unicode="M" horiz-adv-x="1284" 
d="M467 131v514l254 -567h237l254 567v-514q0 -42 19.5 -72.5t48.5 -44t63.5 -13.5t63.5 13.5t48.5 44t19.5 72.5l-2 1131l-250 53l-383 -862l-385 862l-250 -53v-1131q0 -50 27 -83.5t65.5 -41.5t77 0t65.5 41.5t27 83.5z" />
    <glyph glyph-name="ltr78" unicode="N" horiz-adv-x="1280" 
d="M467 131v709l539 -783l239 74l2 1131q0 42 -19.5 72.5t-48.5 44t-63 13.5t-63 -13.5t-48.5 -44t-19.5 -72.5l-2 -711l-539 784l-239 -73v-1131q0 -50 27 -83.5t65.5 -41.5t77 0t65.5 41.5t27 83.5z" />
    <glyph glyph-name="ltr79" unicode="O" horiz-adv-x="1183" 
d="M123 696q0 -145 50 -275t133.5 -221.5t196.5 -145.5t234 -54t233.5 54t196.5 145.5t134.5 221.5t50.5 275t-50 275t-134 222t-197 146t-234 54t-233.5 -54t-196 -146t-134 -222t-50.5 -275zM385 696q0 113 45 212.5t126.5 160.5t180.5 61q100 0 181.5 -61t126.5 -160.5
t45 -212.5t-45 -212.5t-127 -160.5t-181 -61q-100 0 -181.5 61t-126 160.5t-44.5 212.5z" />
    <glyph glyph-name="ltr80" unicode="P" horiz-adv-x="1019" 
d="M467 826v304h332q69 0 118.5 -44t49.5 -109v-2q0 -63 -50 -105.5t-118 -42.5zM467 565h332q181 0 305.5 121.5t124.5 290.5q0 171 -125 293.5t-305 122.5l-461 -2l-131 -131l-2 -1129q0 -50 27 -83.5t65.5 -41.5t77 0t65.5 41.5t27 83.5v434z" />
    <glyph glyph-name="ltr81" unicode="Q" horiz-adv-x="1183" 
d="M123 696q0 -145 50 -275t133.5 -221.5t196.5 -145.5t234 -54q191 0 350 126l5 -22q10 -48 43.5 -76t73 -28t75.5 15.5t56 54.5t10 88l-52 254q54 137 54 284q0 145 -50 275t-134 222t-197 146t-234 54t-233.5 -54t-196 -146t-134 -222t-50.5 -275zM385 696
q0 113 45 212.5t126.5 160.5t180.5 61q100 0 181.5 -61t126.5 -160.5t45 -212.5t-45 -212.5t-127 -160.5t-181 -61q-100 0 -181.5 61t-126 160.5t-44.5 212.5z" />
    <glyph glyph-name="ltr82" unicode="R" horiz-adv-x="1060" 
d="M1040 635q87 57 138 147.5t51 194.5q0 172 -124.5 294t-307.5 122l-459 -2l-131 -131l-2 -1129q0 -50 27 -83.5t65.5 -41.5t77 0t65.5 41.5t27 83.5v434h284q63 -52 109.5 -149t110.5 -322q10 -35 32 -58t48 -30.5t55.5 -6t54 16t43.5 35t24.5 51.5t-3.5 66
q-95 329 -185 467zM770 827q-50 0 -151 -0.5t-152 -0.5v304h330q69 0 119.5 -44t50.5 -109v-2q0 -59 -43.5 -100t-106.5 -47q-22 4 -47 -1z" />
    <glyph glyph-name="ltr83" unicode="S" horiz-adv-x="858" 
d="M1059 979q0 80 -35.5 154.5t-97.5 132t-154 92.5t-197 35h-2q-196 0 -327 -123.5t-131 -290.5q0 -74 30 -136.5t78.5 -104.5t110.5 -78.5t126.5 -60t126.5 -47t110.5 -42.5t78 -43.5t29.5 -52.5v-2q0 -67 -72 -108.5t-158 -41.5h-2q-87 0 -158 41.5t-71 110.5
q0 42 -19.5 72.5t-48.5 44t-63 13.5t-63 -13.5t-48.5 -44t-19.5 -72.5q0 -78 36.5 -152.5t99.5 -132.5t156.5 -93.5t200.5 -35.5q105 0 198 35.5t156.5 93t100.5 132.5t37 153q0 85 -37.5 154t-98.5 114t-134.5 81t-147.5 62t-135 48.5t-99 49t-38 56.5q0 67 60 109t138 42
q85 0 153.5 -41t68.5 -110q0 -36 14.5 -64t37.5 -42.5t51 -21.5t56 0t51 21.5t37.5 42.5t14.5 64z" />
    <glyph glyph-name="ltr84" unicode="T" horiz-adv-x="854" 
d="M444 1130v-999q0 -36 14.5 -64t37.5 -42.5t51.5 -21.5t56.5 0t51 21.5t37.5 42.5t14.5 64v999h266q42 0 72.5 19.5t44 48.5t13.5 63.5t-13.5 63.5t-44 48.5t-72.5 19.5h-801q-42 0 -72.5 -19.5t-44 -48.5t-13.5 -63.5t13.5 -63.5t44 -48.5t72.5 -19.5h272z" />
    <glyph glyph-name="ltr85" unicode="U" horiz-adv-x="1021" 
d="M164 1262v-777v-2q0 -129 65.5 -240.5t179.5 -177t248 -65.5t247.5 65.5t179 177t65.5 242.5l2 775q1 50 -26 84.5t-65.5 43t-77.5 0.5t-66.5 -42t-28.5 -84v-777v-2q0 -91 -68 -156t-162 -65h-2q-94 0 -161.5 65t-67.5 158l2 775q1 50 -26 84.5t-65.5 43t-77.5 0.5
t-66.5 -42t-28.5 -84z" />
    <glyph glyph-name="ltr86" unicode="V" horiz-adv-x="1019" 
d="M51 1210l486 -1130h241l482 1130q13 33 11.5 64.5t-17.5 54.5t-38.5 40t-51.5 22t-55.5 0.5t-51.5 -25t-39 -53.5l-361 -848l-364 848q-14 33 -39 53.5t-51.5 25t-55.5 -0.5t-51.5 -22t-38.5 -40t-17.5 -54.5t11.5 -64.5z" />
    <glyph glyph-name="ltr87" unicode="W" horiz-adv-x="1429" 
d="M45 1233l254 -1131l250 -18l332 866l483 -882l246 55l69 1130q3 50 -22 85.5t-63 46t-77 5t-68 -37.5t-32 -82l-41 -678l-401 733l-238 -16l-278 -727l-160 708q-8 35 -28 59.5t-45.5 33.5t-54.5 9.5t-54 -12t-45 -32t-27 -50t0 -65.5z" />
    <glyph glyph-name="ltr88" unicode="X" horiz-adv-x="854" 
d="M581 940l-270 395q-20 30 -48 45t-55 14t-54 -11t-46.5 -31.5t-30.5 -46.5t-7 -56.5t24 -60.5l325 -478l-353 -503q-21 -29 -25 -60.5t6.5 -57t29 -47.5t45 -32.5t54 -12t55 13.5t48.5 44l298 425l287 -423q20 -30 48 -45t55 -14t54 11.5t46.5 32t30.5 46.5t7 56.5
t-24 60.5l-343 504l335 477q21 29 25 60.5t-6.5 57t-29 47t-45 32t-54 12t-55 -13.5t-48.5 -44z" />
    <glyph glyph-name="ltr89" unicode="Y" horiz-adv-x="819" 
d="M690 660l320 534q19 31 21 62.5t-10.5 56t-33 45t-48.5 29t-55 7.5t-54 -17.5t-46 -47.5l-227 -379l-231 379q-19 31 -46 47.5t-54.5 17t-55 -8.5t-48 -29t-33 -44.5t-10.5 -56t21 -61.5l328 -535v-528q0 -50 27 -83.5t65.5 -41.5t77 0t65.5 41.5t27 83.5v529z" />
    <glyph glyph-name="ltr90" unicode="Z" horiz-adv-x="776" 
d="M203 1130h448l-590 -929l111 -201h723q42 0 72.5 19.5t44 48.5t13.5 63t-13.5 63t-44 48.5t-72.5 19.5h-485l589 930l-110 201h-686q-42 0 -72.5 -19.5t-44 -48.5t-13.5 -63.5t13.5 -63.5t44 -48.5t72.5 -19.5z" />
    <glyph glyph-name="ltr91" unicode="[" horiz-adv-x="559" 
d="M522 1393h-186l-131 -131v-1541l131 -131h186q36 0 64 14.5t42.5 37.5t21.5 51t0 56.5t-21.5 51.5t-42.5 37.5t-64 14.5h-55v1277h55q42 0 72.5 19.5t44 48.5t13.5 63.5t-13.5 63.5t-44 48.5t-72.5 19.5z" />
    <glyph glyph-name="ltr92" unicode="\" horiz-adv-x="483" 
d="M45 1274l274 -1213q8 -35 28 -59t45.5 -33.5t54.5 -9.5t54 12.5t45 32t27 50t0 65.5l-274 1212q-8 35 -28 59.5t-45.5 33.5t-54.5 9.5t-54 -12t-45 -32t-27 -50t0 -65.5z" />
    <glyph glyph-name="ltr93" unicode="]" horiz-adv-x="600" 
d="M213 1130h55v-1277h-55q-36 0 -64 -14.5t-42.5 -37.5t-21.5 -51t0 -56.5t21.5 -51.5t42.5 -37.5t64 -14.5h186l131 131v1541l-131 131h-186q-42 0 -72.5 -19.5t-44 -48.5t-13.5 -63.5t13.5 -63.5t44 -48.5t72.5 -19.5z" />
    <glyph glyph-name="ltr94" unicode="^" horiz-adv-x="806" 
d="M332 641l141 305l137 -303q34 -75 108 -79t119.5 53.5t10.5 132.5l-256 565l-238 2l-260 -565q-19 -42 -13 -75t25.5 -60t51 -39.5t63.5 -13.5t62.5 19t48.5 58z" />
    <glyph glyph-name="ltr95" unicode="_" horiz-adv-x="925" 
d="M90 -410h881q36 0 64 14.5t42.5 37.5t21.5 51t0 56.5t-21.5 51.5t-42.5 37.5t-64 14.5h-881q-36 0 -64 -14.5t-42.5 -37.5t-21.5 -51t0 -56.5t21.5 -51.5t42.5 -37.5t64 -14.5z" />
    <glyph glyph-name="ltr96" unicode="`" horiz-adv-x="313" 
d="M125 1241l43 -280q6 -35 24.5 -61t43.5 -37t53.5 -13.5t55 8.5t47 29t30.5 48t4 66l-43 281q-6 35 -24.5 61t-43.5 36.5t-53.5 13t-55 -8.5t-47 -29t-30.5 -48t-4 -66z" />
    <glyph glyph-name="ltr97" unicode="a" 
d="M82 492q0 -103 37 -195t98.5 -156.5t143 -102.5t169.5 -38q107 0 207 57q30 -47 88.5 -56t106 26.5t47.5 103.5v361v360q0 68 -47 103.5t-105.5 26.5t-88.5 -55q-98 56 -208 56h-2q-117 0 -219.5 -63.5t-164.5 -177t-62 -250.5zM344 492q0 91 52.5 160t133.5 69t134 -69
t53 -160v-3q0 -89 -54 -158t-133 -69h-2q-77 0 -130.5 70t-53.5 160z" />
    <glyph glyph-name="ltr98" unicode="b" 
d="M405 57q100 -57 207 -57q117 0 220 63.5t166 177.5t63 251t-62.5 250.5t-165.5 177t-221 63.5h-2q-96 0 -184 -45v455q0 42 -19.5 72.5t-48.5 44t-63 13.5t-63 -13.5t-48.5 -44t-19.5 -72.5v-904v-358q0 -51 29 -85t68 -42t80 5.5t64 47.5zM426 489q0 93 52.5 162.5
t133.5 69.5t134 -69t53 -160v-3q0 -89 -54 -158t-133 -69h-2q-77 0 -130.5 69t-53.5 158z" />
    <glyph glyph-name="ltr99" unicode="c" horiz-adv-x="847" 
d="M666 338q-58 -76 -148 -76h-2q-75 0 -123.5 70.5t-48.5 159.5q0 90 49 159.5t125 69.5q99 0 146 -64q25 -34 59 -47t65.5 -7t59 26.5t43 49t13 64.5t-26.5 70q-123 170 -359 170h-2q-113 0 -212.5 -62.5t-160.5 -176.5t-61 -252v-3q0 -138 61 -251t161 -175.5t214 -62.5
q223 0 356 182q21 29 26.5 60t-4.5 56.5t-28 47.5t-44.5 33.5t-53.5 13.5t-55 -12t-49 -43z" />
    <glyph glyph-name="ltr100" unicode="d" 
d="M82 492q0 -103 36.5 -195t98 -156.5t143.5 -102.5t170 -38q107 0 207 57q30 -47 88.5 -56t106 26.5t47.5 103.5v361v901q0 36 -14.5 64t-37.5 42.5t-51 21.5t-56 0t-51 -21.5t-37.5 -42.5t-14.5 -64v-455q-90 45 -187 45h-2q-117 0 -219.5 -63.5t-164.5 -177t-62 -250.5z
M344 492q0 91 52.5 160t133.5 69t134 -69t53 -160v-3q0 -89 -54 -158t-133 -69h-2q-79 0 -131.5 69.5t-52.5 160.5z" />
    <glyph glyph-name="ltr101" unicode="e" horiz-adv-x="925" 
d="M688 344q-57 -84 -156 -82h-2q-48 0 -87.5 26.5t-64.5 71.5h324q-10 -10 -14 -16zM865 377l114 115q0 137 -62.5 250.5t-165.5 177t-221 63.5h-2q-117 0 -219.5 -63.5t-164.5 -177t-62 -250.5v-3q0 -102 36.5 -193.5t98 -156t143.5 -102t170 -37.5q229 -2 371 188
q36 59 23 109t-59 80zM713 623h-335q25 45 64.5 71.5t87.5 26.5q33 0 67.5 -14.5t54 -29.5t40 -34.5t21.5 -19.5z" />
    <glyph glyph-name="ltr102" unicode="f" horiz-adv-x="606" 
d="M451 983q19 240 118 240q42 0 72.5 19.5t44 48.5t13.5 63t-13.5 63t-44 48.5t-72.5 19.5q-53 0 -99.5 -13t-94.5 -47.5t-84 -89.5t-63.5 -145t-37.5 -207h-18q-50 0 -83.5 -27t-41.5 -65.5t0 -77t41.5 -65.5t83.5 -27h12v-590q0 -50 27 -83.5t65.5 -41.5t77 0t65.5 41.5
t27 83.5v590h123q36 0 64 14.5t42.5 37.5t21.5 51t0 56t-21.5 51t-42.5 37.5t-64 14.5h-118z" />
    <glyph glyph-name="ltr103" unicode="g" 
d="M82 492q0 -103 37 -195t98.5 -156.5t143 -102.5t169.5 -38q92 0 179 42q-10 -63 -30 -116t-59.5 -93.5t-89.5 -41.5q-36 0 -64 -15t-42 -38.5t-20.5 -51.5t1 -55.5t22.5 -50.5t43.5 -37t64.5 -14q117 1 221.5 94t163.5 231.5t59 276.5l2 719q1 52 -28 86.5t-69 43.5
t-81.5 -4.5t-64.5 -48.5q-98 56 -208 56h-2q-117 0 -219.5 -63.5t-164.5 -177t-62 -250.5zM344 492q0 91 52.5 160t133.5 69t134 -69t53 -160v-3q0 -89 -54 -158t-133 -69h-2q-77 0 -130.5 70t-53.5 160z" />
    <glyph glyph-name="ltr104" unicode="h" horiz-adv-x="970" 
d="M426 959v303q0 42 -19.5 72.5t-48.5 44t-63 13.5t-63 -13.5t-48.5 -44t-19.5 -72.5v-709v-422q0 -50 27 -83.5t65.5 -41.5t77 0t65.5 41.5t27 83.5v422q0 66 36 117t93 51q56 0 90.5 -51t34.5 -117l2 -424q1 -50 28 -83.5t65.5 -41t76.5 0.5t64.5 42t25.5 84v422
q0 183 -116 306.5t-271 123.5h-2q-63 0 -127 -24z" />
    <glyph glyph-name="ltr105" unicode="i" horiz-adv-x="272" 
d="M236 1059h2q42 0 72.5 19.5t44 48.5t13.5 63t-13.5 63t-44 48.5t-72.5 19.5h-2q-50 0 -83.5 -27t-41.5 -65.5t0 -77t41.5 -65.5t83.5 -27zM104 852v-721q0 -36 14.5 -64t37.5 -42.5t51 -21.5t56.5 0t51.5 21.5t37.5 42.5t14.5 64v721q0 36 -14.5 64t-37.5 42.5t-51 21.5
t-56.5 0t-51.5 -21.5t-37.5 -42.5t-14.5 -64z" />
    <glyph glyph-name="ltr106" unicode="j" horiz-adv-x="679" 
d="M520 1053h2q42 0 72.5 19.5t44 48.5t13.5 63t-13.5 63t-44 48.5t-72.5 19.5h-2q-42 0 -72.5 -19.5t-44 -48.5t-13.5 -63t13.5 -63t44 -48.5t72.5 -19.5zM389 852v-721q0 -85 -24.5 -161t-75.5 -127.5t-117 -51.5q-50 0 -83.5 -27t-41.5 -65.5t0 -77t41.5 -65.5t83.5 -27
q92 0 178.5 44t153 121.5t107 191.5t40.5 245l2 719q1 50 -26 84.5t-65.5 43t-77.5 0.5t-66.5 -42t-28.5 -84z" />
    <glyph glyph-name="ltr107" unicode="k" horiz-adv-x="851" 
d="M164 1393v-1262q0 -50 27 -83.5t65.5 -41.5t77 0t65.5 41.5t27 83.5v165l256 -257q25 -26 55.5 -36t57 -4t51 21t39.5 39.5t21 51t-4 57t-36 55.5l-266 269l266 268q26 25 36 55.5t4 57t-21 51t-39.5 39.5t-51 21t-57 -4t-55.5 -36l-256 -257v706q0 42 -19.5 72.5
t-48.5 44t-63 13.5t-63 -13.5t-48.5 -44t-19.5 -72.5z" />
    <glyph glyph-name="ltr108" unicode="l" horiz-adv-x="258" 
d="M164 1393v-1262q0 -50 27 -83.5t65.5 -41.5t77 0t65.5 41.5t27 83.5v1262q0 42 -19.5 72.5t-48.5 44t-63 13.5t-63 -13.5t-48.5 -44t-19.5 -72.5z" />
    <glyph glyph-name="ltr109" unicode="m" horiz-adv-x="1488" 
d="M812 882q-111 101 -259 101h-2q-85 0 -162 -37q-36 35 -89.5 37t-94.5 -33t-41 -98v-274v-447q0 -50 27 -83.5t65.5 -41.5t77 0t65.5 41.5t27 83.5v447q0 59 35.5 101t91.5 42q54 0 90.5 -41.5t38.5 -97.5v-7v-444q0 -50 27 -83.5t65.5 -41.5t77 0t65.5 41.5t27 83.5v445
v4q0 58 36 99.5t91 41.5q56 0 91.5 -42t35.5 -101l2 -449q1 -50 28 -83.5t65.5 -41t76.5 0.5t64.5 42t25.5 84v447q0 171 -114.5 288t-274.5 117h-2q-146 0 -257 -101z" />
    <glyph glyph-name="ltr110" unicode="n" horiz-adv-x="970" 
d="M942 131v422q0 183 -116 306.5t-271 123.5h-2q-84 0 -162 -39q-35 36 -89 39t-96 -32.5t-42 -98.5v-299v-422q0 -50 27 -83.5t65.5 -41.5t77 0t65.5 41.5t27 83.5v422q0 66 36 117t93 51q56 0 90.5 -51t34.5 -117l2 -424q1 -50 28 -83.5t65.5 -41t76.5 0.5t64.5 42
t25.5 84z" />
    <glyph glyph-name="ltr111" unicode="o" horiz-adv-x="925" 
d="M82 492q0 -103 37 -195t98.5 -156.5t143 -102.5t169.5 -38q117 0 220 63.5t166 177.5t63 251t-62.5 250.5t-165.5 177t-221 63.5h-2q-117 0 -219.5 -63.5t-164.5 -177t-62 -250.5zM344 492q0 91 52.5 160t133.5 69t134 -69t53 -160v-3q0 -89 -54 -158t-133 -69h-2
q-77 0 -130.5 70t-53.5 160z" />
    <glyph glyph-name="ltr112" unicode="p" 
d="M164 494v-2v-832q0 -36 14.5 -64t37.5 -42.5t51 -21.5t56 0t51 21.5t37.5 42.5t14.5 64v385q90 -45 186 -45q117 0 220 63.5t166 177.5t63 251t-62.5 250.5t-165 177t-219.5 63.5q-110 1 -209 -56q-30 46 -88.5 55t-105.5 -26.5t-47 -103.5v-358zM426 492q2 92 54 161
t132 68h2q79 0 132 -69t53 -160v-3q0 -89 -54 -158t-133 -69h-2q-77 0 -130.5 70t-53.5 160z" />
    <glyph glyph-name="ltr113" unicode="q" 
d="M82 492q0 -103 37 -195t98.5 -156.5t143 -102.5t169.5 -38q97 0 187 45v-385q0 -36 14.5 -64t37.5 -42.5t51 -21.5t56 0t51 21.5t37.5 42.5t14.5 64v832v360q0 68 -47 103.5t-105.5 26.5t-88.5 -55q-98 56 -208 56h-2q-117 0 -219.5 -63.5t-164.5 -177t-62 -250.5z
M344 492q0 91 52.5 160t133.5 69t134 -69t53 -160v-3q0 -89 -54 -158t-133 -69h-2q-77 0 -130.5 70t-53.5 160z" />
    <glyph glyph-name="ltr114" unicode="r" horiz-adv-x="555" 
d="M384 951q-27 24 -65.5 29.5t-72.5 -6t-58 -44t-24 -78.5v-339v-24v-358q0 -50 27 -83.5t65.5 -41.5t77 0t65.5 41.5t27 83.5v358v5q0 43 5.5 80.5t17 72t35 54.5t55.5 20q36 0 64 14.5t42.5 37.5t21.5 51t0 56t-21.5 51t-42.5 37.5t-64 14.5q-85 0 -155 -32z" />
    <glyph glyph-name="ltr115" unicode="s" horiz-adv-x="712" 
d="M743 674q0 126 -93.5 217.5t-223.5 91.5h-2q-134 0 -227 -91.5t-93 -217.5v-2q1 -147 107 -232q-53 -1 -91 -35.5t-38 -95.5q0 -124 97.5 -216.5t244.5 -92.5q144 0 243 93t99 216q1 155 -114 240q40 11 65.5 43.5t25.5 81.5zM490 623q-15 4 -38.5 10.5t-35 10t-25 8.5
t-19 9.5t-5.5 10.5q0 23 18 36t39 13q23 0 40 -13t17 -34q0 -28 9 -51zM328 377q33 -12 82.5 -25.5t71.5 -22t22 -20.5v-2q0 -24 -24.5 -34.5t-53.5 -10.5h-2q-29 0 -54.5 11t-25.5 36q0 39 -16 68z" />
    <glyph glyph-name="ltr116" unicode="t" horiz-adv-x="505" 
d="M413 721h56q36 0 64 14.5t42.5 37.5t21.5 51t0 56t-21.5 51t-42.5 37.5t-64 14.5h-56l1 213q1 50 -26 84.5t-65.5 43t-77.5 0.5t-66.5 -42t-28.5 -84v-217q-40 -6 -55 -32.5t-7.5 -62t21 -69.5t27.5 -62.5t14 -32.5v-409v-2q0 -149 82.5 -230t236.5 -81q42 0 72.5 19.5
t44 48.5t13.5 63t-13.5 63t-44 48.5t-72.5 19.5q-57 0 -57 51z" />
    <glyph glyph-name="ltr117" unicode="u" horiz-adv-x="909" 
d="M123 852v-463v-2q0 -157 117 -272t284 -115q166 0 282 115t116 274l2 461q1 50 -26 84.5t-66 43t-78 0.5t-66.5 -42t-28.5 -84v-463v-2q0 -52 -40 -88.5t-95 -36.5h-2q-55 0 -96 36.5t-41 90.5l2 461q1 50 -26 84.5t-65.5 43t-77.5 0.5t-66.5 -42t-28.5 -84z" />
    <glyph glyph-name="ltr118" unicode="v" horiz-adv-x="847" 
d="M90 805l283 -721h245l275 721q12 34 9 65.5t-20 53.5t-40.5 38.5t-52 20t-55.5 -2t-50.5 -26.5t-36.5 -55l-153 -403l-158 403q-14 34 -38 55t-50.5 26.5t-55.5 1.5t-52.5 -20.5t-40 -38.5t-19 -53t9.5 -65z" />
    <glyph glyph-name="ltr119" unicode="w" horiz-adv-x="1333" 
d="M86 815l207 -721l248 -16l194 446l193 -446l248 16l206 721q9 35 3.5 66t-24.5 51.5t-43.5 35t-54 16t-55.5 -6t-48 -30.5t-32 -58l-104 -371l-168 387h-242l-168 -389l-106 373q-10 35 -32 58t-48 30.5t-55.5 6t-54 -16t-43.5 -35t-24.5 -51.5t3.5 -66z" />
    <glyph glyph-name="ltr120" unicode="x" horiz-adv-x="847" 
d="M655 514l189 260q21 29 25.5 60.5t-5.5 57t-29 47.5t-45.5 33t-54 13t-55.5 -12t-49 -43l-139 -192l-140 192q-21 29 -49 43t-55.5 12t-54 -13t-45.5 -33t-29 -47.5t-5.5 -57t25.5 -60.5l189 -260l-222 -305q-21 -29 -25.5 -60.5t5.5 -57t29 -47.5t45.5 -33t54 -13
t55.5 12t49 43l173 237l172 -237q21 -29 49 -43t55.5 -12t54 13t45.5 33t29 47.5t5.5 57t-25.5 60.5z" />
    <glyph glyph-name="ltr121" unicode="y" horiz-adv-x="765" 
d="M565 895l-133 -375l-137 377q-12 34 -35 55.5t-49.5 27t-55.5 2.5t-52.5 -19t-41 -38t-20.5 -53t8 -65l250 -686q-6 -29 -13.5 -71.5t-12.5 -69.5t-12 -60.5t-15 -53.5t-18.5 -39t-24 -27.5t-31.5 -8.5q-50 0 -83.5 -27t-41.5 -65.5t0 -77t41.5 -65.5t83.5 -27q38 0 63 3
t58 15t57 34.5t53 64t53.5 101t51.5 146.5t53 201l250 715q9 25 9 49q0 55 -41.5 90.5t-94.5 35.5q-39 0 -71 -22.5t-48 -66.5z" />
    <glyph glyph-name="ltr122" unicode="z" horiz-adv-x="770" 
d="M244 721h182l-324 -520l111 -201h479q42 0 72.5 19.5t44 48.5t13.5 63t-13.5 63t-44 48.5t-72.5 19.5h-243l323 520l-110 201h-418q-50 0 -83.5 -27t-41.5 -65.5t0 -77t41.5 -65.5t83.5 -27z" />
    <glyph glyph-name="ltr123" unicode="{" horiz-adv-x="874" 
d="M838 1475q-88 0 -162.5 -45t-122.5 -120t-75 -169.5t-29 -196.5q-1 -97 -43.5 -176.5t-108.5 -130.5l2 -211q147 -105 150 -299q1 -142 46 -262t134.5 -196t206.5 -79q36 -1 64.5 13t43.5 37t22 50.5t1 56t-20.5 52t-42.5 38.5t-64 16q-25 0 -45.5 11.5t-33.5 27
t-22.5 42t-14.5 47.5t-8 54t-3.5 50t-1.5 46q-3 105 -32 205.5t-53.5 147t-31.5 51.5q2 2 12.5 20.5t28 57t33.5 85t28.5 112t14.5 130.5q0 30 1 51.5t4 57.5t11.5 61t22 50.5t36 38.5t52.5 13q42 0 72.5 19.5t44 48.5t13.5 63.5t-13.5 63.5t-44 48.5t-72.5 19.5z" />
    <glyph glyph-name="ltr124" unicode="|" horiz-adv-x="272" 
d="M164 1303v-1606q0 -36 14.5 -64t37.5 -42.5t51 -21.5t56 0t51 21.5t37.5 42.5t14.5 64v1606q0 42 -19.5 72.5t-48.5 44t-63 13.5t-63 -13.5t-48.5 -44t-19.5 -72.5z" />
    <glyph glyph-name="ltr125" unicode="}" horiz-adv-x="874" 
d="M170 1212q32 0 53.5 -16t31.5 -37t14.5 -54.5t4 -58t-2 -59.5t-1.5 -47v-4q7 -168 122 -376q17 -31 14 -31q0 -1 -16.5 -26t-33.5 -57.5t-36.5 -78.5t-33 -107.5t-16.5 -124.5v-4q0 -15 2 -51t3 -61.5t-3 -59.5t-13.5 -55t-31.5 -36t-55 -15q-36 0 -64 -14.5t-42.5 -37.5
t-21.5 -51t0 -56.5t21.5 -51.5t42.5 -37.5t64 -14.5q98 0 168 37.5t111 110t60 167t21 220.5q7 178 177 301l-2 215q-66 44 -118.5 126.5t-56.5 178.5q-1 86 -14 162t-40.5 144t-68 116.5t-100.5 77t-135 29.5q-50 1 -84.5 -26t-43 -65.5t-1 -77t41 -66t83.5 -28.5zM406 529
q-2 0 -3 1q2 2 3 1.5t0 -2.5z" />
    <glyph glyph-name="ltr126" unicode="~" horiz-adv-x="894" 
d="M303 444q0 13 11 23t30 10h4q41 1 88.5 -24t84 -55t81.5 -55.5t82 -25.5q75 0 135.5 27.5t96 71t54.5 94t19 100.5q0 36 -14.5 64t-37.5 42.5t-51 21.5t-56 0t-51 -21.5t-37.5 -42.5t-14.5 -64q0 -13 -11.5 -21.5t-29.5 -8.5h-2q-37 0 -82.5 25t-82.5 55t-85 55t-88 24
q-63 1 -115.5 -17.5t-86.5 -48.5t-57.5 -69t-34 -76.5t-11.5 -74.5q-2 -50 24 -84.5t64 -44t77 -3t67 39.5t30 83z" />
    <glyph glyph-name="ltr168" unicode="&#xa8;" horiz-adv-x="516" 
d="M569 1262v2q0 69 -48 104.5t-107 25t-88 -58.5q-29 48 -88 58.5t-107.5 -25t-48.5 -104.5v-2q0 -69 48.5 -104.5t107.5 -25t88 58.5q29 -48 88 -58.5t107 25t48 104.5z" />
    <glyph glyph-name="ltr184" unicode="&#xb8;" horiz-adv-x="624" 
d="M254 305l-43 -190l127 -160q32 0 55 -14.5t23 -46.5v-3q0 -14 -10.5 -26t-24.5 -12h-2l-166 -3q-61 0 -96 -40.5t-35 -89.5t34.5 -89.5t96.5 -40.5h166q122 0 210.5 88.5t88.5 212.5q0 73 -23 138.5t-54.5 104t-58.5 61t-40 22.5l6 31q7 35 0 65.5t-27 50t-45 32t-54 12
t-54.5 -9.5t-45.5 -33.5t-28 -59.5z" />
    <glyph glyph-name="ltr305" unicode="&#x131;" horiz-adv-x="272" 
d="M367 131v721q0 36 -14.5 64t-37.5 42.5t-51 21.5t-56.5 0t-51.5 -21.5t-37.5 -42.5t-14.5 -64v-721q0 -36 14.5 -64t37.5 -42.5t51 -21.5t56.5 0t51.5 21.5t37.5 42.5t14.5 64z" />
    <glyph glyph-name="ltr710" unicode="&#x2c6;" horiz-adv-x="600" 
d="M311 999l56 64l57 -64q24 -27 53.5 -38.5t56.5 -7.5t52.5 17.5t42 37t24 49.5t0 56.5t-31.5 57.5l-156 177h-197l-153 -177q-24 -27 -31.5 -57.5t0 -56.5t24 -49.5t42 -37t52.5 -17.5t56 7.5t53 38.5z" />
    <glyph glyph-name="ltr711" unicode="&#x2c7;" horiz-adv-x="600" 
d="M115 1176l153 -177h197l156 177q24 27 31.5 57.5t0 56.5t-24 49.5t-42 37t-52.5 17.5t-56.5 -7.5t-53.5 -38.5l-57 -64l-56 64q-24 27 -53 38.5t-56 7.5t-52.5 -17.5t-42 -37t-24 -49.5t0 -56.5t31.5 -57.5z" />
    <glyph glyph-name="ltr713" unicode="&#x2c9;" horiz-adv-x="440" 
d="M213 954h149q42 0 72.5 19.5t44 48.5t13.5 63.5t-13.5 63.5t-44 48.5t-72.5 19.5h-149q-42 0 -72.5 -19.5t-44 -48.5t-13.5 -63.5t13.5 -63.5t44 -48.5t72.5 -19.5z" />
    <glyph glyph-name="ltr714" unicode="&#x2ca;" horiz-adv-x="272" 
d="M129 1292l-43 -176q-12 -48 6.5 -87.5t54 -56.5t74.5 -18t73 26t46 75l43 176q12 48 -6.5 87.5t-54 56.5t-74.5 18t-73 -26t-46 -75z" />
    <glyph glyph-name="ltr715" unicode="&#x2cb;" horiz-adv-x="305" 
d="M92 1210l76 -176q14 -33 39 -53.5t52 -25t56 0.5t51.5 22.5t38.5 40t17.5 54t-12.5 64.5l-76 176q-14 33 -39 53.5t-52 25t-56 -0.5t-51.5 -22.5t-38.5 -40t-17.5 -54t12.5 -64.5z" />
    <glyph glyph-name="ltr717" unicode="&#x2cd;" horiz-adv-x="440" 
d="M213 -246h149q42 0 72.5 19.5t44 48.5t13.5 63t-13.5 63t-44 48.5t-72.5 19.5h-149q-50 0 -83.5 -27t-41.5 -65.5t0 -77t41.5 -65.5t83.5 -27z" />
    <glyph glyph-name="ltr727" unicode="&#x2d7;" horiz-adv-x="518" 
d="M213 307h227q36 0 64 14.5t42.5 37.5t21.5 51t0 56t-21.5 51t-42.5 37.5t-64 14.5h-227q-50 0 -83.5 -27t-41.5 -65.5t0 -77t41.5 -65.5t83.5 -27z" />
    <glyph glyph-name="ltr728" unicode="&#x2d8;" horiz-adv-x="546" 
d="M82 1262q0 -118 79.5 -197t178.5 -76q104 -3 182 76t78 197q0 58 -36.5 92.5t-82 38t-88 -22.5t-52.5 -77q-10 51 -52.5 77t-88 22.5t-82 -38t-36.5 -92.5zM341 1260q10 -5 5 -8q-1 -1 -2 -1h-8q-3 0 -4 2q0 3 7 6z" />
    <glyph glyph-name="ltr729" unicode="&#x2d9;" horiz-adv-x="440" 
d="M418 1262v2q0 42 -19.5 72.5t-48.5 44t-63 13.5t-63 -13.5t-48.5 -44t-19.5 -72.5v-2q0 -36 14.5 -64t37.5 -42.5t51 -21.5t56 0t51 21.5t37.5 42.5t14.5 64z" />
    <glyph glyph-name="ltr730" unicode="&#x2da;" horiz-adv-x="569" 
d="M82 1133q0 -108 79 -186.5t189 -78.5q113 0 193 77.5t80 184.5q0 105 -79 184t-192 79h-4q-110 0 -188 -78.5t-78 -181.5zM344 1133q0 3 6 -3h-2q-4 -1 -4 3zM350 1130q1 -1 10 3v-5q-6 2 -8 2h-2z" />
    <glyph glyph-name="ltr731" unicode="&#x2db;" horiz-adv-x="505" 
d="M332 256q-2 0 -27.5 -17.5t-62.5 -50t-73 -71.5t-61.5 -89t-25.5 -96v-2q0 -68 30 -133.5t86.5 -111.5t137 -49t180.5 55q53 32 63 86t-18 94t-74.5 60.5t-105.5 -15.5q-13 -8 -25 -2.5t-12 16.5l-12 64v0q42 0 72.5 19.5t44 48.5t13.5 63t-13.5 63t-44 48.5t-72.5 19.5z
" />
    <glyph glyph-name="ltr732" unicode="&#x2dc;" horiz-adv-x="917" 
d="M344 995q0 4 -1.5 22.5t-2 35.5t1 35.5t8.5 30t19 11.5q6 0 14.5 -27.5t25 -66.5t45.5 -78t88 -66.5t140 -27.5q51 0 101 24.5t92.5 71.5t69 125.5t26.5 176.5q0 36 -14.5 64t-37.5 42.5t-51 21.5t-56 0t-51 -21.5t-37.5 -42.5t-14.5 -64q0 -4 1.5 -22.5t2 -35.5t-1 -36
t-8.5 -30.5t-19 -11.5h-2q-5 0 -12 20t-16 49.5t-30.5 64t-51 64t-82.5 49.5t-121 20h-4q-49 0 -97.5 -24.5t-90.5 -71.5t-68.5 -126t-26.5 -176q0 -36 14.5 -64t37.5 -42.5t51 -21.5t56 0t51 21.5t37.5 42.5t14.5 64z" />
    <glyph glyph-name="ltr733" unicode="&#x2dd;" horiz-adv-x="673" 
d="M252 1331l-109 -176q-22 -40 -21.5 -77.5t23.5 -66t53.5 -45t67.5 -14t66 25.5q28 -20 61 -24.5t67.5 10.5t57.5 50l115 176q23 40 23 78t-23 67t-54 45.5t-69.5 13.5t-68.5 -28q-29 21 -63 27t-68.5 -9.5t-57.5 -52.5z" />
  </font>
</defs>
</svg>
